<?xml version="1.0" encoding="UTF-8" standalone="no"?>
<svg
   xmlns:dc="http://purl.org/dc/elements/1.1/"
   xmlns:cc="http://creativecommons.org/ns#"
   xmlns:rdf="http://www.w3.org/1999/02/22-rdf-syntax-ns#"
   xmlns:svg="http://www.w3.org/2000/svg"
   xmlns="http://www.w3.org/2000/svg"
   xmlns:sodipodi="http://sodipodi.sourceforge.net/DTD/sodipodi-0.dtd"
   xmlns:inkscape="http://www.inkscape.org/namespaces/inkscape"
   width="199mm"
   height="196mm"
   version="1.1"
   id="svg10"
   sodipodi:docname="micron_experts_non_transparent.svg"
   inkscape:version="1.0 (4035a4fb49, 2020-05-01)">
  <metadata
     id="metadata16">
    <rdf:RDF>
      <cc:Work
         rdf:about="">
        <dc:format>image/svg+xml</dc:format>
        <dc:type
           rdf:resource="http://purl.org/dc/dcmitype/StillImage" />
        <dc:title></dc:title>
      </cc:Work>
    </rdf:RDF>
  </metadata>
  <defs
     id="defs14" />
  <sodipodi:namedview
     inkscape:document-rotation="0"
     pagecolor="#ffffff"
     bordercolor="#666666"
     borderopacity="1"
     objecttolerance="10"
     gridtolerance="10"
     guidetolerance="10"
     inkscape:pageopacity="0"
     inkscape:pageshadow="2"
     inkscape:window-width="1366"
     inkscape:window-height="705"
     id="namedview12"
     showgrid="false"
     inkscape:zoom="0.4792789"
     inkscape:cx="234.2746"
     inkscape:cy="493.62553"
     inkscape:window-x="-8"
     inkscape:window-y="-8"
     inkscape:window-maximized="1"
     inkscape:current-layer="svg10" />
  <g
     inkscape:groupmode="layer"
     id="layer1"
     inkscape:label="base" />
  <g
     transform="rotate(180,381.6984,434.64155)"
     id="g8">
    <path
       d="M 390.91,130.75 C 191.06,130.58103 26.45,289.01 21.19,488.84 15.8449,691.84 176.98,860.71 381.1,866.03 585.22,871.3458 755.04,711.1 760.38,508.09 765.72,305.08 604.57,136.19 400.44,130.87 c -3.1894,-0.0831 -6.3591,-0.12232 -9.5312,-0.125 z m 0,2.5938 c 3.1499,0.003 6.303,0.002 9.4688,0.125 207.75,8.0948 87.303,195.87 -9.4375,360.03 99.837,-0.43533 182.18,79.242 184.81,179.81 2.1768,83.351 -51.086,155.24 -126.16,180.16 -14.386,7.3038 -36.392,10.803 -68.438,9.9688 -202.69,-5.282 -362.68,-172.96 -357.37,-374.53 5.2247,-198.43 168.68,-355.73 367.12,-355.56 z"
       stroke-width="0"
       id="path2" />
    <path
       d="m 398.71,131.75 c -1.5805,0.001 -3.161,0.0215 -4.75,0.0625 -101.7,2.6216 -181.98,85.915 -179.31,186.03 2.6631,100.12 87.268,179.15 188.97,176.53 101.702,-2.62 181.98,-85.915 179.31,-186.03 -2.6232,-98.55 -84.65,-176.68 -184.22,-176.59 z m -1.4375,120.78 c 32.114,-0.8393 58.815,24.48 59.656,56.531 0.84095,32.052 -24.51,58.723 -56.625,59.562 -32.115,0.839 -58.815,-24.479 -59.656,-56.531 -0.841,-32.052 24.51,-58.723 56.625,-59.562 z"
       id="path4" />
    <path
       style="fill:#6cd435;fill-opacity:1;stroke:#00cc00;stroke-width:1px;stroke-linecap:butt;stroke-linejoin:miter;stroke-opacity:1"
       d="m 416.20781,863.90114 c 0,0 -104.02972,15.87127 -209.64646,-33.89933 C 168.57228,812.09993 103.06109,766.92981 69.545962,705.37637 -73.433399,442.78238 111.86187,260.992 111.86187,260.992 c 0,0 -130.856922,446.48543 132.04619,570.20132 31.36226,14.75833 116.89079,45.2547 172.29975,32.70782 z"
       id="path878"
       sodipodi:nodetypes="csscsc" />
    <circle
       style="fill:#ffffff;fill-opacity:1;stroke:none;stroke-width:0.984208"
       id="path13"
       cx="-395.71878"
       cy="-679.79242"
       transform="scale(-1)"
       r="183.90292" />
    <path
       style="fill:#ffffff;fill-opacity:1;stroke:none;stroke-width:1px;stroke-linecap:butt;stroke-linejoin:miter;stroke-opacity:1"
       d="m 388.87583,863.2845 c 0,0 -116.76805,1.82566 -160.58388,-127.53535 -43.81582,-129.361 61.24727,-211.77276 111.55189,-225.69651 l 58.47424,-16.185 c 0,0 -67.73679,2.36984 -113.76564,-37.70518 -44.04013,-38.34353 -83.41882,-96.17459 -65.72374,-183.60916 17.73498,-87.63165 94.13333,-119.66635 107.4531,-126.23131 12.20067,-6.01339 44.46785,-12.71441 44.46785,-12.71441 l -45.77189,5.41177 c 0,0 -132.58126,12.65305 -217.25347,128.8394 C 3.5320555,410.83028 42.601003,559.79586 85.443047,664.98824 c 28.445873,69.84469 98.507503,149.35098 215.801133,187.60311 29.90321,9.75212 87.63165,10.69315 87.63165,10.69315 z"
       id="path845"
       sodipodi:nodetypes="csscsssccsssc" />
  </g>
  <g
     inkscape:groupmode="layer"
     id="layer2"
     inkscape:label="Above">
    <path
       d="m 301.20099,182.58433 a 58.170426,58.055795 0 1 1 3e-5,9e-4 l 58.14946,-1.52071 z"
       id="path6"
       style="fill:#6cd435;fill-opacity:1;stroke-width:0.299105" />
  </g>
  <circle
     style="fill:#ffffff;fill-opacity:1;stroke:none;stroke-width:1.01935;stroke-opacity:1"
     id="path851"
     cx="364.30359"
     cy="559.01013"
     r="58.276546" />
</svg>
