<?xml version="1.0" encoding="UTF-8" standalone="no"?>
<svg
   xmlns:dc="http://purl.org/dc/elements/1.1/"
   xmlns:cc="http://creativecommons.org/ns#"
   xmlns:rdf="http://www.w3.org/1999/02/22-rdf-syntax-ns#"
   xmlns:svg="http://www.w3.org/2000/svg"
   xmlns="http://www.w3.org/2000/svg"
   xmlns:sodipodi="http://sodipodi.sourceforge.net/DTD/sodipodi-0.dtd"
   xmlns:inkscape="http://www.inkscape.org/namespaces/inkscape"
   width="210mm"
   height="297mm"
   version="1.1"
   id="svg10"
   sodipodi:docname="micron_experts.svg"
   inkscape:version="1.0 (4035a4fb49, 2020-05-01)">
  <metadata
     id="metadata16">
    <rdf:RDF>
      <cc:Work
         rdf:about="">
        <dc:format>image/svg+xml</dc:format>
        <dc:type
           rdf:resource="http://purl.org/dc/dcmitype/StillImage" />
        <dc:title />
      </cc:Work>
    </rdf:RDF>
  </metadata>
  <defs
     id="defs14" />
  <sodipodi:namedview
     inkscape:document-rotation="0"
     pagecolor="#ffffff"
     bordercolor="#666666"
     borderopacity="1"
     objecttolerance="10"
     gridtolerance="10"
     guidetolerance="10"
     inkscape:pageopacity="0"
     inkscape:pageshadow="2"
     inkscape:window-width="1366"
     inkscape:window-height="705"
     id="namedview12"
     showgrid="false"
     inkscape:zoom="0.33890136"
     inkscape:cx="552.36558"
     inkscape:cy="138.66027"
     inkscape:window-x="-8"
     inkscape:window-y="-8"
     inkscape:window-maximized="1"
     inkscape:current-layer="g8" />
  <g
     transform="rotate(180,383.78487,502.45175)"
     id="g8">
    <path
       d="M 390.91,130.75 C 191.06,130.58103 26.45,289.01 21.19,488.84 15.8449,691.84 176.98,860.71 381.1,866.03 585.22,871.3458 755.04,711.1 760.38,508.09 765.72,305.08 604.57,136.19 400.44,130.87 c -3.1894,-0.0831 -6.3591,-0.12232 -9.5312,-0.125 z m 0,2.5938 c 3.1499,0.003 6.303,0.002 9.4688,0.125 207.75,8.0948 87.303,195.87 -9.4375,360.03 99.837,-0.43533 182.18,79.242 184.81,179.81 2.1768,83.351 -51.086,155.24 -126.16,180.16 -14.386,7.3038 -36.392,10.803 -68.438,9.9688 -202.69,-5.282 -362.68,-172.96 -357.37,-374.53 5.2247,-198.43 168.68,-355.73 367.12,-355.56 z"
       stroke-width="0"
       id="path2" />
    <path
       d="m 398.71,131.75 c -1.5805,0.001 -3.161,0.0215 -4.75,0.0625 -101.7,2.6216 -181.98,85.915 -179.31,186.03 2.6631,100.12 87.268,179.15 188.97,176.53 101.702,-2.62 181.98,-85.915 179.31,-186.03 -2.6232,-98.55 -84.65,-176.68 -184.22,-176.59 z m -1.4375,120.78 c 32.114,-0.8393 58.815,24.48 59.656,56.531 0.84095,32.052 -24.51,58.723 -56.625,59.562 -32.115,0.839 -58.815,-24.479 -59.656,-56.531 -0.841,-32.052 24.51,-58.723 56.625,-59.562 z"
       id="path4" />
    <path
       transform="matrix(0.2994,0,0,0.29881,285.55,627.4)"
       d="m 545.65,178.7 a 194.29,194.29 0 1 1 -9e-5,-0.003 l -194.22,5.0892 z"
       id="path6"
       style="fill:#6cd435;fill-opacity:1" />
    <path
       style="fill:#00df43;fill-opacity:1;stroke:#00cc00;stroke-width:1px;stroke-linecap:butt;stroke-linejoin:miter;stroke-opacity:1"
       d="m 650.49151,759.88535 c 0,0 -184.99511,201.71314 -441.35915,76.8297 C -43.452036,713.67281 28.907557,425.81582 28.907557,425.81582 c 0,0 -51.319238,289.19892 215.000503,405.3775 226.58629,98.84537 367.34461,-41.54773 406.58345,-71.30797 z"
       id="path878"
       sodipodi:nodetypes="cscsc" />
  </g>
</svg>
